<?xml version="1.0" encoding="UTF-8" standalone="no"?>
<svg
   xmlns:dc="http://purl.org/dc/elements/1.1/"
   xmlns:cc="http://creativecommons.org/ns#"
   xmlns:rdf="http://www.w3.org/1999/02/22-rdf-syntax-ns#"
   xmlns:svg="http://www.w3.org/2000/svg"
   xmlns="http://www.w3.org/2000/svg"
   xmlns:sodipodi="http://sodipodi.sourceforge.net/DTD/sodipodi-0.dtd"
   xmlns:inkscape="http://www.inkscape.org/namespaces/inkscape"
   version="1.1"
   id="svg28"
   xml:space="preserve"
   width="329.07086"
   height="415.62729"
   viewBox="0 0 329.07086 415.62729"
   sodipodi:docname="logo.svg"
   inkscape:version="1.0.1 (0767f8302a, 2020-10-17)"><metadata
     id="metadata34"><rdf:RDF><cc:Work
         rdf:about=""><dc:format>image/svg+xml</dc:format><dc:type
           rdf:resource="http://purl.org/dc/dcmitype/StillImage" /><dc:title /></cc:Work></rdf:RDF></metadata><defs
     id="defs32"><clipPath
       clipPathUnits="userSpaceOnUse"
       id="clipPath44"><path
         d="M 0,321 H 687 V 0 H 0 Z"
         id="path42" /></clipPath><clipPath
       clipPathUnits="userSpaceOnUse"
       id="clipPath74"><path
         d="M 0,321 H 687 V 0 H 0 Z"
         id="path72" /></clipPath><clipPath
       clipPathUnits="userSpaceOnUse"
       id="clipPath170"><path
         d="M 0,321 H 687 V 0 H 0 Z"
         id="path168" /></clipPath><clipPath
       clipPathUnits="userSpaceOnUse"
       id="clipPath186"><path
         d="M 0,321 H 687 V 0 H 0 Z"
         id="path184" /></clipPath><clipPath
       clipPathUnits="userSpaceOnUse"
       id="clipPath200"><path
         d="M 0,321 H 687 V 0 H 0 Z"
         id="path198" /></clipPath><clipPath
       clipPathUnits="userSpaceOnUse"
       id="clipPath216"><path
         d="M 0,321 H 687 V 0 H 0 Z"
         id="path214" /></clipPath><clipPath
       clipPathUnits="userSpaceOnUse"
       id="clipPath230"><path
         d="M 0,321 H 687 V 0 H 0 Z"
         id="path228" /></clipPath><clipPath
       clipPathUnits="userSpaceOnUse"
       id="clipPath246"><path
         d="M 0,321 H 687 V 0 H 0 Z"
         id="path244" /></clipPath></defs><sodipodi:namedview
     pagecolor="#ffffff"
     bordercolor="#666666"
     borderopacity="1"
     objecttolerance="10"
     gridtolerance="10"
     guidetolerance="10"
     inkscape:pageopacity="0"
     inkscape:pageshadow="2"
     inkscape:window-width="2510"
     inkscape:window-height="1455"
     id="namedview30"
     showgrid="false"
     inkscape:zoom="2.0317741"
     inkscape:cx="495.08841"
     inkscape:cy="224.38471"
     inkscape:window-x="72"
     inkscape:window-y="27"
     inkscape:window-maximized="0"
     inkscape:current-layer="g36"
     inkscape:document-rotation="0" /><g
     id="g36"
     inkscape:groupmode="layer"
     inkscape:label="Logo for publication"
     transform="matrix(1.3333333,0,0,-1.3333333,-28.471319,422.61995)"><g
       id="g38"><g
         id="g40"
         clip-path="url(#clipPath44)"><text
           transform="matrix(1,0,0,-1,-617.6387,32.4463)"
           style="font-variant:normal;font-weight:normal;font-stretch:normal;font-size:155px;font-family:'Shree Devanagari 714';-inkscape-font-specification:ShreeDev0714;writing-mode:lr-tb;fill:#ffffff;fill-opacity:1;fill-rule:nonzero;stroke:none"
           id="text48"><tspan
             x="0 88.970001 192.045 224.44 324.10501 426.87"
             y="0"
             sodipodi:role="line"
             id="tspan46">ERIKAM</tspan></text><g
           id="g50"
           transform="translate(-508.6602,32.4463)"><path
             d="m 0,0 v 52.758 h 45.441 c 5.262,0 9.691,-2.696 13.287,-8.087 3.72,-5.521 5.583,-12.13 5.583,-19.832 L 64.889,8.472 C 65.273,4.362 66.107,1.54 67.392,0 h 7.702 c -0.771,1.281 -1.285,3.529 -1.541,6.739 -0.258,2.696 -0.385,6.74 -0.385,12.13 0,9.628 -1.477,17.841 -4.429,24.647 -2.954,6.802 -6.804,10.845 -11.552,12.13 5.132,0.896 9.434,4.043 12.9,9.435 3.337,5.391 5.007,11.745 5.007,19.062 0,8.342 -2.762,15.403 -8.28,21.18 -5.521,5.903 -12.197,8.857 -20.025,8.857 H -7.701 V 0 Z m 0,59.882 v 46.789 h 45.441 c 6.033,0 11.231,-2.248 15.597,-6.739 4.235,-4.621 6.354,-10.142 6.354,-16.559 0,-6.547 -2.119,-12.068 -6.354,-16.56 -4.366,-4.621 -9.564,-6.931 -15.597,-6.931 z"
             style="fill:none;stroke:#e7e8e9;stroke-width:0.25;stroke-linecap:butt;stroke-linejoin:miter;stroke-miterlimit:10;stroke-dasharray:none;stroke-opacity:1"
             id="path52" /></g><path
           d="m -405.65,146.626 h -7.701 V 32.446 h 7.701 z"
           style="fill:none;stroke:#e7e8e9;stroke-width:0.25;stroke-linecap:butt;stroke-linejoin:miter;stroke-miterlimit:10;stroke-dasharray:none;stroke-opacity:1"
           id="path54" /><g
           id="g56"
           transform="translate(-373.3027,32.4463)"><path
             d="M 0,0 V 41.783 L 21.565,61.422 69.125,0 H 78.56 L 27.342,66.621 76.441,114.18 h -9.82 L 0,51.217 V 114.18 H -7.701 V 0 Z"
             style="fill:none;stroke:#e7e8e9;stroke-width:0.25;stroke-linecap:butt;stroke-linejoin:miter;stroke-miterlimit:10;stroke-dasharray:none;stroke-opacity:1"
             id="path58" /></g><g
           id="g60"
           transform="translate(-283.1924,32.4463)"><path
             d="M 0,0 14.634,36.584 H 67.392 L 82.024,0 h 8.858 L 46.211,114.18 H 36.584 L -8.664,0 Z M 16.944,43.9 41.013,105.323 64.503,43.9 Z"
             style="fill:none;stroke:#e7e8e9;stroke-width:0.25;stroke-linecap:butt;stroke-linejoin:miter;stroke-miterlimit:10;stroke-dasharray:none;stroke-opacity:1"
             id="path62" /></g><g
           id="g64"
           transform="translate(-170.7471,32.4463)"><path
             d="M 0,0 V 105.323 L 42.554,0 h 7.124 L 92.23,105.323 V 0 h 7.702 V 114.18 H 87.802 L 46.212,9.627 4.429,114.18 H -7.701 V 0 Z"
             style="fill:none;stroke:#e7e8e9;stroke-width:0.25;stroke-linecap:butt;stroke-linejoin:miter;stroke-miterlimit:10;stroke-dasharray:none;stroke-opacity:1"
             id="path66" /></g></g></g><g
       id="g68"><g
         id="g76"
         transform="translate(201.1807,166.6489)"><path
           d="m 0,0 c -0.035,0.43 -0.147,2.861 -0.913,6.605 -0.747,3.759 -2.254,8.778 -4.47,14.497 -1.095,2.867 -2.347,5.924 -3.634,9.151 -1.28,3.226 -2.602,6.631 -3.679,10.145 -2.091,7.026 -3.705,15.602 -2.931,24.305 0.197,2.172 0.553,4.353 1.098,6.487 0.515,2.013 1.296,4.125 2.286,6.154 1.96,4.043 4.909,7.868 8.114,9.838 1.598,0.991 3.149,1.511 4.772,1.6 0.408,0.022 0.825,0.017 1.254,-0.017 0.116,-0.008 0.216,-0.016 0.265,-0.024 0.076,-0.01 0.078,0.002 0.333,-0.04 l 0.298,-0.046 0.148,-0.023 c -0.257,0.043 -0.033,0.004 -0.072,0.01 l 0.277,-0.055 c 0.749,-0.159 1.581,-0.466 2.389,-0.894 1.623,-0.842 3.115,-2.254 3.84,-3.529 0.367,-0.634 0.544,-1.191 0.596,-1.6 0.05,-0.417 0.021,-0.7 -0.127,-1.122 C 9.77,81.233 9.65,80.99 9.471,80.712 9.432,80.644 9.375,80.572 9.326,80.499 9.275,80.423 9.275,80.434 9.254,80.391 L 8.473,79.46 C 7.205,77.951 5.803,76.213 4.502,73.97 3.857,72.846 3.237,71.591 2.734,70.157 2.488,69.461 2.254,68.64 2.101,67.933 1.982,67.396 1.894,66.852 1.838,66.305 1.641,64.116 1.83,61.913 2.121,59.702 2.836,55.29 3.375,50.729 4.594,46.293 L 6.249,39.572 C 6.822,37.361 7.454,35.146 8.7,33.168 l 0.289,-0.43 c 0.162,-0.229 0.329,-0.456 0.517,-0.689 0.363,-0.458 0.785,-0.921 1.254,-1.364 0.466,-0.445 0.998,-0.868 1.554,-1.254 l 0.432,-0.28 c 0.118,-0.076 0.311,-0.193 0.565,-0.33 0.451,-0.249 0.957,-0.477 1.48,-0.665 0.525,-0.189 1.078,-0.337 1.633,-0.438 0.24,-0.044 0.642,-0.1 0.751,-0.108 l 0.315,-0.025 c 0.291,-0.012 0.582,0.007 0.864,0.049 0.563,0.084 1.085,0.26 1.574,0.469 0.968,0.426 1.832,0.989 2.59,1.614 0.562,0.699 1.109,1.419 1.666,2.155 2.202,2.971 4.669,6.086 8.017,10.11 1.643,2.022 3.526,4.283 5.268,6.816 0.438,0.621 0.877,1.241 1.322,1.833 0.333,0.169 1.147,-0.252 1.363,0.077 l 1.049,0.5 c 1.415,0.663 2.813,1.375 4.215,1.957 1.383,0.59 2.684,1.128 3.83,1.508 1.152,0.381 2.206,0.704 3.213,1.012 2.007,0.611 3.824,1.132 5.602,1.715 1.769,0.588 3.498,1.222 5.174,2.179 0.418,0.24 0.832,0.5 1.236,0.795 0.128,0.04 0.151,0.208 0.185,0.363 l 0.109,0.457 0.207,0.916 c 0.267,1.242 0.482,2.385 0.663,3.506 0.73,4.514 1.107,8.936 1.272,13.428 0.143,4.496 0.084,9.012 -0.445,13.789 -0.255,2.354 -0.727,4.995 -1.366,7.372 -0.637,2.415 -1.442,4.773 -2.388,7.061 -1.895,4.577 -4.354,8.867 -7.231,12.823 -1.424,1.958 -3.012,3.921 -4.689,5.727 -1.67,1.815 -3.425,3.51 -5.247,5.121 -7.295,6.419 -15.818,11.475 -25.08,14.806 -9.253,3.333 -19.202,4.879 -29.1,4.523 -9.923,-0.357 -19.683,-2.539 -28.906,-6.462 -4.668,-2.023 -9.033,-4.511 -13.148,-7.451 -2.057,-1.472 -4.051,-3.057 -5.959,-4.801 -1.911,-1.738 -3.655,-3.54 -5.333,-5.449 -6.687,-7.631 -11.568,-16.635 -14.712,-26.019 -3.157,-9.4 -4.656,-19.192 -4.789,-28.913 -0.063,-4.872 0.213,-9.696 0.838,-14.542 0.676,-5.172 2.119,-10.062 3.812,-14.576 1.694,-4.528 3.622,-8.722 5.391,-12.762 0.875,-1.997 1.758,-4.048 2.484,-5.907 0.725,-1.873 1.33,-3.719 1.752,-5.494 0.422,-1.771 0.653,-3.474 0.634,-4.962 -0.017,-1.496 -0.279,-2.729 -0.732,-3.706 -0.228,-0.494 -0.507,-0.938 -0.855,-1.364 -0.174,-0.212 -0.365,-0.42 -0.578,-0.624 L -69.016,6.98 c 0,-0.007 -0.152,-0.127 -0.25,-0.207 -0.016,-0.014 -0.189,-0.151 -0.078,-0.065 l -0.05,-0.036 c -0.508,-0.416 -1.766,-0.945 -3.335,-1.233 -1.542,-0.302 -3.477,-0.436 -5.294,-0.448 -1.723,0 -3.786,0.178 -5.846,0.392 l -6.44,0.739 -1.712,0.181 -1.472,0.192 c -1.171,0.138 -2.34,0.255 -3.506,0.341 -9.317,0.673 -18.546,0.012 -27.556,-2.245 -4.494,-1.147 -8.931,-2.721 -13.169,-4.92 -1.055,-0.556 -2.101,-1.141 -3.127,-1.774 -0.51,-0.322 -1.021,-0.64 -1.522,-0.984 l -0.751,-0.513 -0.592,-0.429 c -0.439,-0.317 -0.86,-0.665 -1.287,-0.997 -1.683,-1.369 -3.26,-2.861 -4.684,-4.473 -0.671,-0.772 -1.322,-1.554 -1.919,-2.375 -3.034,-3.63 -5.347,-8.074 -6.666,-12.593 -1.286,-4.21 -2.113,-8.594 -2.51,-12.963 -0.809,-8.775 0.055,-17.302 0.945,-25.237 l 0.346,-5.19 0.152,-1.929 c -0.236,0.295 -0.494,0.581 -0.78,0.844 -0.688,0.521 -1.476,1.014 -2.566,1.195 -0.207,-0.06 -0.492,0.035 -0.712,0.027 -0.469,-0.019 -1.008,-0.193 -1.389,-0.341 -0.25,-0.098 -0.408,-0.253 -0.613,-0.35 -0.069,-0.031 -0.122,0.013 -0.172,-0.018 -0.241,-0.152 -0.621,-0.529 -0.826,-0.739 -0.097,-0.099 -0.15,-0.207 -0.249,-0.316 -0.014,-0.016 -0.067,0.014 -0.085,-0.01 -0.388,-0.502 -0.661,-1.148 -0.863,-1.911 -0.01,-0.047 0.06,-0.04 0.029,-0.1 -0.049,-0.222 -0.09,-0.449 -0.096,-0.659 -0.027,-1.123 0.505,-2.34 1.227,-2.986 0.664,-0.592 1.871,-0.89 2.755,-0.679 0.756,0.18 1.506,0.859 1.913,1.832 0.364,0.868 0.369,1.842 -0.208,2.335 -0.037,-0.316 -0.136,-0.573 -0.326,-0.693 -0.203,-0.047 -0.405,-0.091 -0.686,0.018 -0.335,0.25 -0.603,0.684 -0.355,1.236 0.346,0.773 1.372,1.064 2.061,0.478 0.117,-0.183 0.328,-0.33 0.432,-0.452 0.235,-0.277 0.411,-0.524 0.585,-0.8 0.465,-0.743 0.995,-1.671 1.27,-2.392 l 0.129,-0.379 c 0.226,-2.4 0.371,-4.629 0.244,-6.484 l -0.013,0.056 c -0.161,0.554 -0.352,0.955 -0.611,1.428 -0.097,0.177 -0.144,0.394 -0.241,0.545 -0.034,0.055 -0.132,0.079 -0.178,0.138 -0.149,0.195 -0.256,0.408 -0.447,0.599 -0.601,0.604 -1.595,1.168 -2.691,1.052 -0.748,-0.265 -1.412,-0.685 -1.841,-1.617 -0.045,-0.098 -0.054,-0.2 -0.096,-0.3 -0.277,-1.333 0.716,-2.353 2.139,-2.283 0.116,0.083 0.242,0.145 0.39,0.161 0.48,0.326 0.776,1.346 0.38,1.701 -0.007,-0.217 -0.014,-0.314 -0.195,-0.424 -0.483,-0.096 -0.705,0.441 -0.321,0.796 0.489,0.193 0.928,0.076 1.401,-0.217 0.191,-0.118 0.322,-0.293 0.488,-0.457 0.223,-0.218 0.468,-0.412 0.619,-0.643 0.137,-0.208 0.199,-0.46 0.3,-0.679 0.026,-0.059 0.069,-0.096 0.091,-0.144 0.069,-0.17 0.148,-0.303 0.198,-0.472 0.063,-0.224 0.073,-0.47 0.138,-0.724 0.031,-0.126 0.115,-0.238 0.146,-0.37 0.02,-0.086 0.031,-0.175 0.045,-0.264 -0.412,-1.939 -1.142,-3.58 -2.758,-4.981 -1.586,-1.361 -3.248,-1.173 -4.136,-0.588 -0.891,0.592 -1.026,1.618 0.437,2.134 1.201,-1.105 3.793,-3.281 3.293,1.789 -0.928,2.687 -4.078,2.378 -6.481,0.738 -1.207,-0.816 -2.245,-1.941 -2.763,-3.182 -0.259,-0.623 -0.392,-1.273 -0.35,-1.94 0.025,-0.335 0.084,-0.67 0.2,-1.012 0.119,-0.387 0.3,-0.937 0.535,-1.411 3.245,-6.723 9.343,-2.649 11.671,1.994 3.623,6.104 3.036,12.921 1.656,20.067 2.419,-3.552 3.627,-8.044 3.405,-12.394 -0.107,-2.172 -0.568,-4.298 -1.374,-6.22 -0.407,-0.907 -0.874,-2.03 -1.408,-2.994 -0.534,-0.989 -1.132,-1.933 -1.794,-2.814 -2.7,-3.619 -6.98,-7.274 -11.646,-6.891 -4.746,0.34 -1.096,6.232 -0.6,2.131 2.06,0.321 1.64,3.084 0.068,5.093 -1.572,1.979 -4.348,3.217 -7.144,0.286 -2.521,-2.659 -1.981,-6.262 -0.231,-8.725 1.748,-2.483 4.697,-4.179 7.169,-4.53 8.035,-1.051 12.464,3.736 14.763,10.711 0.584,1.743 1.058,3.594 1.453,5.44 l 0.527,2.658 c 0.148,0.84 0.268,1.682 0.352,2.521 0.347,3.355 0.197,6.615 -0.117,9.144 0.994,-1.995 1.72,-4.249 2.168,-6.633 0.223,-1.191 0.378,-2.415 0.462,-3.651 0.084,-1.229 0.086,-2.469 0.067,-3.838 -0.045,-2.669 -0.211,-5.394 -0.503,-7.944 -0.294,-2.55 -0.738,-4.935 -1.319,-7.093 -0.918,-3.409 -2.817,-7.357 -5.67,-9.593 -0.543,-0.417 -1.076,-0.715 -1.581,-0.979 -0.509,-0.236 -1.003,-0.339 -1.472,-0.337 -0.471,0.003 -0.916,0.115 -1.328,0.301 -0.404,0.125 -0.772,0.305 -1.092,0.515 -1.285,0.843 -1.839,2.169 -1.072,2.453 1.225,0.461 2.111,-3.805 4.023,-0.223 1.688,3.175 -3.25,5.188 -5.652,5.482 -5.582,0.684 -7.534,-2.742 -6.824,-6.409 0.178,-0.919 0.524,-1.857 1.023,-2.753 0.06,-0.086 0.133,-0.268 0.209,-0.449 l 0.232,-0.519 c 0.165,-0.348 0.335,-0.685 0.522,-1.022 0.369,-0.667 0.784,-1.311 1.238,-1.909 1.819,-2.407 4.273,-3.998 6.92,-4.008 2.959,-0.026 5.274,0.772 7.107,2.004 1.835,1.239 3.2,2.927 4.29,4.849 0.546,0.961 1.023,1.982 1.448,3.047 0.433,1.018 0.808,1.966 1.1,3.042 0.592,2.118 0.905,4.449 1.006,6.881 0.21,4.839 -0.484,10.193 -1.09,15.116 -0.158,1.247 -0.312,2.36 -0.495,3.453 -0.182,1.09 -0.383,2.136 -0.587,3.123 -0.408,1.976 -0.825,3.72 -1.142,5.133 l 0.439,-0.42 c 1.743,-3.629 3.842,-7.203 6.198,-10.652 1.113,-5.314 0.24,-10.588 -1.393,-16.065 -0.812,-2.732 -1.8,-5.504 -2.752,-8.351 -0.242,-0.678 -0.469,-1.494 -0.668,-2.323 -0.2,-0.824 -0.377,-1.671 -0.521,-2.539 -0.291,-1.735 -0.454,-3.56 -0.458,-5.417 -0.006,-2.105 0.456,-4.181 1.104,-6.105 0.651,-1.928 1.484,-3.713 2.264,-5.418 1.562,-3.406 2.923,-6.583 2.527,-10.034 -0.43,-3.655 -1.367,-6.45 -4.543,-9 -5.751,-3.604 -9.153,2.264 -5.437,2.454 0.701,-1.016 -0.269,-0.914 0.057,-1.665 3.656,-1.507 4.954,5.42 1.529,7.044 -2.956,1.395 -5.529,0.675 -7.286,-1.093 -1.759,-1.766 -2.734,-4.506 -2.579,-7.029 2.588,-5.85 7.71,-7.242 13.21,-6.367 5.484,0.895 11.265,4.195 14.793,7.987 4.696,5.028 7.011,10.188 7.606,15.294 0.624,5.088 -0.572,10.158 -2.157,14.494 -0.789,2.178 -1.625,4.126 -2.442,6.129 -0.41,1.004 -0.819,2.034 -1.223,3.121 -0.205,0.565 -0.394,1.049 -0.608,1.719 l -0.663,2.016 c -1.807,5.366 -4.084,10.704 -6.01,15.58 2.208,-2.511 5.121,-4.1 8.033,-5.78 5.05,-2.918 12.319,-3.96 14.466,3.043 2.993,0.992 5.727,2.635 6.793,5.53 1.275,3.312 -0.782,5.903 -4.706,6.791 -1.042,-0.044 -1.888,-0.317 -2.594,-0.752 -0.711,-0.383 -1.278,-0.965 -1.74,-1.814 -0.619,-1.131 -0.168,-4.6 1.882,-2.623 -1.245,1.104 0.595,1.185 1.483,0.709 0.172,-1.83 -1.312,-2.489 -3.531,-2.708 l -0.057,-0.007 c -5.453,-0.539 -9.884,-0.22 -13.466,0.867 l 0.002,0.002 c 0.342,0.211 0.529,0.474 0.807,0.667 0.09,0.064 0.181,0.019 0.247,0.077 0.313,0.28 0.765,0.911 1.01,1.264 0.114,0.165 0.162,0.332 0.277,0.51 0.016,0.026 0.104,0.001 0.123,0.038 0.217,0.404 0.381,0.852 0.5,1.344 0.06,0.252 0.112,0.491 0.148,0.785 0.034,0.315 0.058,0.644 0.073,0.985 0,0.082 -0.101,0.049 -0.074,0.162 -0.003,0.393 -0.018,0.791 -0.081,1.152 -0.344,1.925 -1.623,3.819 -2.96,4.631 -1.229,0.75 -3.125,0.776 -4.333,0.099 -1.031,-0.581 -1.837,-1.946 -2.073,-3.633 -0.21,-1.502 0.103,-3.041 1.107,-3.661 -0.041,0.516 0.021,0.956 0.262,1.208 0.283,0.137 0.568,0.272 1.021,0.183 0.578,-0.291 1.119,-0.951 0.918,-1.885 -0.219,-0.926 -1.091,-1.553 -2.02,-1.524 -0.618,0.431 -1.195,0.892 -1.736,1.397 -0.543,0.529 -1.049,1.083 -1.528,1.656 -0.957,1.149 -1.789,2.384 -2.522,3.696 -1.466,2.624 -2.539,5.566 -3.355,8.759 l 0.047,-0.072 c 0.529,-0.771 1.01,-1.296 1.627,-1.907 0.229,-0.229 0.404,-0.541 0.619,-0.734 0.076,-0.068 0.233,-0.063 0.326,-0.134 0.313,-0.239 0.574,-0.523 0.942,-0.739 1.163,-0.681 2.869,-1.178 4.416,-0.554 0.964,0.725 1.742,1.678 1.882,3.386 0.013,0.178 -0.024,0.351 -0.016,0.532 -0.303,2.306 -2.334,3.5 -4.34,2.704 -0.118,-0.187 -0.264,-0.345 -0.469,-0.439 -0.5,-0.747 -0.38,-2.483 0.374,-2.869 -0.103,0.346 -0.142,0.503 0.06,0.758 0.647,0.374 1.252,-0.385 0.88,-1.12 -0.61,-0.521 -1.306,-0.524 -2.139,-0.275 -0.338,0.102 -0.615,0.317 -0.943,0.498 -0.436,0.242 -0.89,0.429 -1.233,0.717 -0.304,0.259 -0.533,0.618 -0.795,0.908 -0.07,0.079 -0.154,0.114 -0.209,0.179 -0.191,0.229 -0.382,0.396 -0.546,0.632 -0.217,0.311 -0.368,0.685 -0.606,1.044 -0.118,0.177 -0.305,0.308 -0.424,0.493 -0.071,0.112 -0.134,0.233 -0.201,0.352 -0.195,1.022 -0.373,2.062 -0.527,3.12 -0.219,1.262 -0.545,2.928 -0.77,4.333 -1.816,5.773 -3.472,11.659 -4.353,17.831 -0.889,6.152 -0.907,12.616 0.338,18.944 l 0.259,1.236 0.267,1.123 c 0.233,0.87 0.485,1.69 0.764,2.483 0.566,1.602 1.271,3.164 2.103,4.66 1.663,2.993 3.837,5.699 6.321,8.007 0.624,0.574 1.262,1.132 1.918,1.661 0.331,0.261 0.657,0.532 0.995,0.779 l 0.848,0.608 c 0.389,0.264 0.775,0.535 1.171,0.783 0.784,0.515 1.589,0.988 2.4,1.447 6.516,3.634 13.59,5.67 20.675,6.808 7.104,1.109 14.28,1.327 21.439,0.663 l 10.259,-1.182 c 1.667,-0.188 3.316,-0.359 4.914,-0.465 1.611,-0.113 3.038,-0.124 4.628,-0.034 1.739,0.082 3.42,0.28 4.909,0.66 0.742,0.191 1.431,0.427 2.033,0.706 0.299,0.14 0.576,0.29 0.827,0.447 0.126,0.079 0.247,0.159 0.357,0.242 l 0.085,0.062 c -0.053,-0.042 0.067,0.053 0.092,0.073 l 0.266,0.213 c 2.115,1.73 3.331,4.204 3.51,7.299 0.203,3.092 -0.532,6.588 -1.669,10.029 -1.14,3.425 -2.745,7.016 -4.292,10.63 -3.119,7.22 -6.473,14.948 -7.645,23.531 -1.055,8.272 -1.082,16.566 -0.048,24.832 1.044,8.244 3.177,16.407 6.579,24.084 3.394,7.669 8.106,14.835 14.045,20.852 2.953,3.016 6.295,5.734 9.78,8.052 3.5,2.331 7.189,4.342 11.066,5.99 7.724,3.226 15.865,5.166 24.127,5.775 8.249,0.604 16.571,-0.165 24.491,-2.28 7.925,-2.104 15.431,-5.559 22.128,-10.075 3.354,-2.261 6.504,-4.787 9.418,-7.558 2.906,-2.757 5.607,-5.849 7.893,-9.124 4.601,-6.552 7.967,-14.003 9.272,-21.945 0.613,-3.949 0.775,-7.792 0.768,-11.605 -0.015,-3.81 -0.23,-7.579 -0.627,-11.323 -0.204,-1.872 -0.45,-3.737 -0.771,-5.6 -0.158,-0.933 -0.338,-1.857 -0.54,-2.814 -0.257,-0.902 -0.21,-2.139 -1.262,-2.275 C 55.572,59.983 52.116,59.63 48.633,59.164 46.88,58.938 45.1,58.73 43.232,58.373 c -1.86,-0.38 -3.864,-1.185 -5.679,-2.228 -0.457,-0.258 -0.905,-0.528 -1.342,-0.806 -0.114,-0.063 -0.204,-0.156 -0.34,-0.193 l -0.41,-0.1 c -0.24,-0.108 -0.37,-0.346 -0.556,-0.52 -0.69,-0.755 -1.343,-1.56 -1.982,-2.357 -1.278,-1.592 -2.452,-3.187 -3.507,-4.744 -2.123,-3.114 -3.784,-6.112 -5.394,-9.033 l -1.22,-2.164 c -0.341,-0.752 -1.007,-1.327 -1.673,-1.861 -0.674,-0.524 -1.426,-0.996 -2.295,-1.209 -0.216,-0.051 -0.438,-0.084 -0.664,-0.09 -0.11,-10e-4 -0.221,-10e-4 -0.363,0.015 -0.129,0.011 -0.43,0.052 -0.633,0.106 -0.451,0.106 -0.888,0.281 -1.264,0.497 -0.348,0.199 -0.585,0.368 -0.859,0.581 -0.52,0.413 -0.965,0.886 -1.334,1.373 L 13.459,36 13.275,36.288 c -0.117,0.191 -0.224,0.387 -0.326,0.586 -0.41,0.796 -0.702,1.641 -0.946,2.493 -0.479,1.709 -0.776,3.458 -1.204,5.178 -0.797,3.451 -1.768,6.831 -2.154,10.285 -0.481,3.431 -1.306,6.785 -1.16,10.169 0.076,1.576 0.716,3.618 1.555,5.189 0.837,1.613 1.851,3.005 2.881,4.285 0.502,0.624 1.073,1.285 1.525,1.807 l 0.351,0.423 c 0.089,0.119 0.176,0.218 0.268,0.352 0.187,0.256 0.366,0.515 0.525,0.78 0.65,1.057 1.07,2.182 1.236,3.333 0.348,2.301 -0.388,4.73 -1.795,6.807 -1.402,2.083 -3.404,3.822 -5.612,5.032 C 7.313,93.61 6.15,94.087 4.975,94.403 4.68,94.48 4.385,94.552 4.09,94.609 l -0.221,0.043 -0.221,0.036 c -0.164,0.025 -0.369,0.064 -0.5,0.078 -0.546,0.079 -1.203,0.128 -1.796,0.142 -2.433,0.063 -4.809,-0.487 -6.981,-1.506 -2.174,-1.023 -4.144,-2.49 -5.87,-4.191 -3.452,-3.425 -5.986,-7.667 -7.737,-11.961 -1.754,-4.29 -2.584,-8.77 -2.936,-13.109 -0.338,-4.344 -0.143,-8.56 0.341,-12.543 0.487,-3.986 1.272,-7.752 2.2,-11.252 0.932,-3.475 2.084,-6.717 3.221,-9.744 2.3,-6.051 4.48,-11.286 5.993,-15.749 1.54,-4.455 2.445,-8.121 2.893,-10.753 0.452,-2.633 0.517,-4.215 0.545,-4.546 0.326,-4.548 -0.035,-8.701 -0.48,-11.732 -0.406,-3.035 -0.706,-5.012 0.209,-5.373 0.878,-0.348 2.882,1.06 4.607,4.193 0.862,1.557 1.639,3.531 2.129,5.813 C -0.023,-5.267 0.175,-2.688 0,0"
           style="fill:#000000;fill-opacity:1;fill-rule:evenodd;stroke:none"
           id="path78" /></g><g
         id="g80"
         transform="translate(224.374,227.8042)"><path
           d="m 0,0 c 0.5,-0.15 1.325,0.151 2.357,1.017 1.03,0.859 2.254,2.314 3.452,4.284 1.199,1.962 2.364,4.424 3.347,7.087 0.984,2.654 1.807,5.537 2.326,8.089 0.784,-2.158 1.432,-4.447 2.039,-6.636 0.602,-2.195 1.149,-4.318 1.653,-6.354 1.006,-4.073 1.83,-7.808 2.545,-11.192 0.722,-3.378 1.309,-6.427 2.055,-8.952 0.751,-2.515 1.699,-4.5 3.352,-5.49 1.343,3.571 2.028,6.953 2.417,10.168 0.38,3.217 0.454,6.282 0.368,9.258 -0.196,5.959 -0.971,11.529 -2.136,17.137 -1.179,5.661 -3.099,11.374 -6.279,16.154 -3.146,4.753 -7.187,8.431 -11.467,11.409 -2.152,1.476 -4.361,2.862 -6.588,3.901 -2.254,1.061 -4.594,1.924 -6.949,2.653 -1.178,0.364 -2.361,0.692 -3.543,0.982 -1.187,0.296 -2.361,0.548 -3.476,0.73 -2.264,0.375 -4.538,0.546 -6.791,0.567 -2.253,0.017 -4.487,-0.124 -6.68,-0.386 -1.097,-0.14 -2.184,-0.289 -3.256,-0.488 -1.045,-0.186 -2.029,-0.411 -3.053,-0.671 -2.029,-0.52 -4.054,-1.159 -6.031,-1.878 l -1.471,-0.552 -1.339,-0.558 c -0.866,-0.392 -1.712,-0.783 -2.52,-1.221 -6.505,-3.435 -11.12,-8.338 -14.556,-13.481 -1.715,-2.574 -3.131,-5.207 -4.324,-7.761 -1.152,-2.462 -1.886,-4.615 -2.464,-6.721 -1.125,-4.155 -1.474,-7.779 -1.679,-10.396 -0.187,-2.617 -0.218,-4.169 -0.223,-4.19 -0.238,-6.872 0.304,-14.578 -0.422,-23.543 -0.381,-4.466 -1.147,-9.269 -2.675,-14.117 -1.51,-4.842 -3.816,-9.664 -6.745,-13.956 -0.34,-0.496 -1.357,-1.963 -2.337,-3.284 -0.971,-1.332 -1.889,-2.533 -1.809,-2.775 h 0.002 c 4.246,4.688 7.935,10.435 10.33,16.574 2.435,6.134 3.566,12.405 4.085,18.063 0.519,5.685 0.512,10.85 0.6,15.545 0.074,4.697 0.229,8.936 0.74,12.773 0.506,3.839 1.347,7.267 2.634,10.461 0.32,0.8 0.671,1.584 1.046,2.36 0.372,0.77 0.78,1.518 1.27,2.391 0.948,1.668 1.957,3.259 3.033,4.745 4.316,5.988 9.541,10.185 15.666,12.418 0.768,0.28 1.551,0.538 2.353,0.758 l 0.601,0.166 0.704,0.178 1.412,0.33 c 1.877,0.415 3.732,0.723 5.449,0.895 0.891,0.09 1.592,0.131 2.563,0.158 0.916,0.019 1.831,0.028 2.73,-0.008 1.805,-0.053 3.559,-0.237 5.241,-0.516 1.677,-0.287 3.277,-0.682 4.758,-1.189 0.384,-0.124 0.712,-0.257 1.114,-0.403 l 1.283,-0.52 c 0.853,-0.363 1.7,-0.75 2.526,-1.156 1.653,-0.808 3.213,-1.708 4.531,-2.596 0.659,-0.444 1.244,-0.884 1.72,-1.285 0.634,-0.527 1.364,-1.18 1.988,-1.778 C -1.947,34.75 0.049,32.17 1.313,29.688 1.945,28.433 2.399,27.248 2.712,25.99 3.059,24.626 3.276,23.146 3.379,21.503 3.48,19.868 3.457,18.059 3.336,16.045 3.217,14.066 3.01,12.071 2.719,10.147 2.147,6.312 1.196,2.666 -0.001,0.002 Z"
           style="fill:#676767;fill-opacity:1;fill-rule:nonzero;stroke:none"
           id="path82" /></g></g></g></svg>
